<svg width="1200" height="900" viewBox="0 0 1200 900" fill="none" xmlns="http://www.w3.org/2000/svg">
  <rect width="1200" height="900" rx="40" fill="#F8FAFC"/>
  <rect x="70" y="70" width="1060" height="760" rx="30" fill="white" stroke="#CBD5E1" stroke-width="3"/>
  <rect x="120" y="120" width="170" height="170" rx="14" fill="#E2E8F0"/>
  <rect x="310" y="120" width="170" height="170" rx="14" fill="#E2E8F0"/>
  <rect x="500" y="120" width="170" height="170" rx="14" fill="#E2E8F0"/>
  <rect x="690" y="120" width="170" height="170" rx="14" fill="#E2E8F0"/>
  <rect x="880" y="120" width="170" height="170" rx="14" fill="#E2E8F0"/>
  <rect x="120" y="310" width="170" height="170" rx="14" fill="#E2E8F0"/>
  <rect x="310" y="310" width="170" height="170" rx="14" fill="#E2E8F0"/>
  <rect x="500" y="310" width="170" height="170" rx="14" fill="#E2E8F0"/>
  <rect x="690" y="310" width="170" height="170" rx="14" fill="#E2E8F0"/>
  <rect x="880" y="310" width="170" height="170" rx="14" fill="#E2E8F0"/>
  <rect x="120" y="500" width="170" height="170" rx="14" fill="#E2E8F0"/>
  <rect x="310" y="500" width="170" height="170" rx="14" fill="#E2E8F0"/>
  <rect x="500" y="500" width="170" height="170" rx="14" fill="#E2E8F0"/>
  <rect x="690" y="500" width="170" height="170" rx="14" fill="#E2E8F0"/>
  <rect x="880" y="500" width="170" height="170" rx="14" fill="#E2E8F0"/>
  <text x="120" y="760" fill="#8A6A31" font-size="34" font-family="Arial, Helvetica, sans-serif">12-20 professional outputs in one run</text>
</svg>
